<svg id="typo" xmlns="http://www.w3.org/2000/svg" viewBox="0 0 194.3 170.09"><defs><style>.cls-1{fill:#1d1d1b;}.cls-2{fill:#3db7e4;}.cls-3{fill:#eeaf30;}.cls-4{fill:#f2e500;}.cls-5{fill:#d70929;}.cls-6{fill:#de3831;}.cls-7{fill:#e6007e;}.cls-8{fill:#fadc41;}.cls-9{fill:#8fd400;}.cls-10{fill:#0073cf;}.cls-11{fill:#e17000;}.cls-12{fill:#58a618;}.cls-13{fill:#693a77;}</style></defs><title>LLiWlogoBoldRVB</title><path class="cls-1" d="M46.81,147.32h4.34v21.47H64.55v3.83H46.81v-25.3Z" transform="translate(-46.81 -56.16)"/><path class="cls-1" d="M68.06,147.32H72.4v25.3H68.06v-25.3Z" transform="translate(-46.81 -56.16)"/><path class="cls-1" d="M75.58,147.32h4.77l7,20.35h0.07l7.12-20.35h4.74l-9.4,25.3h-5Z" transform="translate(-46.81 -56.16)"/><path class="cls-1" d="M102.52,147.32h4.34v25.3h-4.34v-25.3Z" transform="translate(-46.81 -56.16)"/><path class="cls-1" d="M112.42,147.32h4.16l12.62,18.33V147.32h4.16v25.3H129.2l-12.62-18.29v18.29h-4.16v-25.3Z" transform="translate(-46.81 -56.16)"/><path class="cls-1" d="M150.8,146.89a15.39,15.39,0,0,1,9,2.86l-2.24,3.07a11.49,11.49,0,0,0-6.62-2.17c-5.21,0-8.64,3.76-8.64,9.11,0,5.82,3.22,9.54,8.64,9.54a10.48,10.48,0,0,0,5.06-1.23v-6H149.6v-3.22H160v11.46a15.94,15.94,0,0,1-9.18,2.75c-7.92,0-13-5.35-13-13.3C137.82,152.31,143,146.89,150.8,146.89Z" transform="translate(-46.81 -56.16)"/><path class="cls-1" d="M67.87,181.66h4.34v21.47H85.62V207H67.87v-25.3Z" transform="translate(-46.81 -56.16)"/><path class="cls-1" d="M98.15,181.66h5.1l9.36,25.3H108L106,201.51H95.37L93.49,207h-4.7ZM96.56,198h8.24l-4.08-11.78h-0.07Z" transform="translate(-46.81 -56.16)"/><path class="cls-1" d="M116.46,181.66h10.19c5.93,0,8.71,2.93,8.71,6.76a5.66,5.66,0,0,1-3.8,5.42c2.86,0.9,4.77,2.82,4.77,5.89,0,4.63-3.51,7.23-9,7.23H116.46v-25.3Zm10,10.74c3.07,0,4.52-1.59,4.52-3.65s-1.45-3.47-4.52-3.47h-5.68v7.12h5.68Zm0.83,11c2.86,0,4.66-1.3,4.66-3.87,0-2.39-1.84-3.65-4.66-3.65h-6.51v7.52h6.51Z" transform="translate(-46.81 -56.16)"/><path class="cls-1" d="M142.25,201.25a14.66,14.66,0,0,0,7.63,2.31c3.33,0,5-1.45,5-3.47,0-5.71-14.24-2-14.24-11.6,0-4,3.36-7.27,9-7.27a19.91,19.91,0,0,1,8.78,2.06l-1.63,3.47a15.93,15.93,0,0,0-7-1.7c-2.93,0-4.66,1.48-4.66,3.36,0,5.67,14.24,1.81,14.24,11.64,0,4.16-3.15,7.34-9.51,7.34a19,19,0,0,1-9.72-2.71Z" transform="translate(-46.81 -56.16)"/><rect class="cls-1" x="21.29" y="159.19" width="1.29" height="1.46"/><rect class="cls-1" x="21.29" y="162.44" width="1.29" height="7.48"/><path class="cls-1" d="M77.06,218.36a3.56,3.56,0,0,0-2.5,1.12l-0.07-.93h-1.2v7.53h1.29v-5.5a2.81,2.81,0,0,1,2.22-1.15A1.3,1.3,0,0,1,78.16,221v5.1h1.29V221C79.45,219.27,78.62,218.36,77.06,218.36Z" transform="translate(-46.81 -56.16)"/><polygon class="cls-1" points="51.41 168.08 49.01 159.84 49 159.8 47.72 159.8 45.3 168.08 42.76 159.84 42.75 159.8 41.34 159.8 44.53 169.88 44.54 169.92 45.97 169.92 48.34 161.82 50.71 169.88 50.72 169.92 52.14 169.92 55.37 159.8 53.97 159.8 51.41 168.08"/><path class="cls-1" d="M110.38,224.41v-3.7c0-1.5-.94-2.33-2.65-2.33a6.92,6.92,0,0,0-2.85.73l0,0,0.5,1,0,0a5.31,5.31,0,0,1,2.32-.68,1.19,1.19,0,0,1,1.39,1.22v1c-3,.14-4.46,1-4.46,2.58a2,2,0,0,0,2.23,1.94,3.26,3.26,0,0,0,2.42-1,1.68,1.68,0,0,0,1.8.89h0.05v-1h-0.05A0.63,0.63,0,0,1,110.38,224.41Zm-1.29-1.82v1.73a2.52,2.52,0,0,1-2,.91,1,1,0,0,1-1.21-1C105.91,223.24,106.95,222.7,109.09,222.59Z" transform="translate(-46.81 -56.16)"/><rect class="cls-1" x="67.67" y="159.02" width="1.29" height="10.9"/><rect class="cls-1" x="72.9" y="159.02" width="1.29" height="10.9"/><path class="cls-1" d="M128.18,218.38a3.58,3.58,0,0,0-3.63,3.84c0,2.45,1.42,4,3.63,4s3.6-1.58,3.6-4A3.56,3.56,0,0,0,128.18,218.38Zm0,1.06c1.37,0,2.29,1.12,2.29,2.78s-0.9,3-2.29,3-2.32-1.14-2.32-3C125.85,220.58,126.81,219.44,128.18,219.44Z" transform="translate(-46.81 -56.16)"/><path class="cls-1" d="M139.08,218.36a3.56,3.56,0,0,0-2.5,1.12l-0.07-.93h-1.2v7.53h1.29v-5.5a2.81,2.81,0,0,1,2.22-1.15,1.3,1.3,0,0,1,1.36,1.55v5.1h1.29V221C141.48,219.27,140.65,218.36,139.08,218.36Z" transform="translate(-46.81 -56.16)"/><rect class="cls-1" x="98.57" y="162.44" width="1.29" height="7.48"/><rect class="cls-1" x="98.57" y="159.19" width="1.29" height="1.46"/><path class="cls-1" d="M156.54,225.12a0.63,0.63,0,0,1-.69-0.71v-3.7c0-1.5-.94-2.33-2.65-2.33a6.92,6.92,0,0,0-2.85.73l0,0,0.5,1,0,0a5.31,5.31,0,0,1,2.32-.68,1.19,1.19,0,0,1,1.39,1.22v1c-3,.14-4.46,1-4.46,2.58a2,2,0,0,0,2.23,1.94,3.26,3.26,0,0,0,2.42-1,1.68,1.68,0,0,0,1.8.89h0.05v-1h-0.05Zm-2-2.53v1.73a2.52,2.52,0,0,1-2,.91,1,1,0,0,1-1.21-1C151.38,223.24,152.42,222.7,154.56,222.59Z" transform="translate(-46.81 -56.16)"/><path class="cls-2" d="M175.83,193a2.33,2.33,0,1,0,2.7,1.89A2.33,2.33,0,0,0,175.83,193Z" transform="translate(-46.81 -56.16)"/><path class="cls-2" d="M236.92,157.24a2.33,2.33,0,1,0,1.39,3A2.32,2.32,0,0,0,236.92,157.24Z" transform="translate(-46.81 -56.16)"/><path class="cls-2" d="M212.83,157.62a3,3,0,1,0-1.52,5.66,3,3,0,0,0,2.94-3.82A3,3,0,0,0,212.83,157.62Z" transform="translate(-46.81 -56.16)"/><circle class="cls-2" cx="153.36" cy="77.51" r="2.46"/><path class="cls-2" d="M194.31,164.56h0a2.33,2.33,0,1,0-2,3.82h0.21A2.33,2.33,0,0,0,194.31,164.56Z" transform="translate(-46.81 -56.16)"/><path class="cls-2" d="M158.68,95.59a1.81,1.81,0,0,0,.31,3.6l0.32,0A1.81,1.81,0,1,0,158.68,95.59Z" transform="translate(-46.81 -56.16)"/><path class="cls-2" d="M124,124a2.33,2.33,0,1,0,1.89,2.7A2.33,2.33,0,0,0,124,124Z" transform="translate(-46.81 -56.16)"/><path class="cls-2" d="M137.41,107.9a2.46,2.46,0,0,0,.21,4.9h0.22A2.46,2.46,0,1,0,137.41,107.9Z" transform="translate(-46.81 -56.16)"/><path class="cls-2" d="M176.84,102a2.33,2.33,0,1,0,1.39,3A2.31,2.31,0,0,0,176.84,102Z" transform="translate(-46.81 -56.16)"/><path class="cls-2" d="M215,92a2.78,2.78,0,1,0-.34,3.91A2.76,2.76,0,0,0,215,92Z" transform="translate(-46.81 -56.16)"/><path class="cls-2" d="M147.92,79.6a3,3,0,0,0-4.13,3.79,3,3,0,0,0,2.85,2,3,3,0,0,0,2.75-1.75h0A3,3,0,0,0,147.92,79.6Z" transform="translate(-46.81 -56.16)"/><path class="cls-3" d="M192.22,196.69a3,3,0,1,0-5.7,2.08,3,3,0,0,0,2.85,2,3,3,0,0,0,1-.18A3,3,0,0,0,192.22,196.69Z" transform="translate(-46.81 -56.16)"/><path class="cls-3" d="M222.94,123.47a3.36,3.36,0,1,0-2.73,3.89A3.36,3.36,0,0,0,222.94,123.47Z" transform="translate(-46.81 -56.16)"/><path class="cls-3" d="M191.82,146.39a2.26,2.26,0,1,0-.55,4.14A2.26,2.26,0,0,0,191.82,146.39Z" transform="translate(-46.81 -56.16)"/><path class="cls-3" d="M224.79,164.52a3,3,0,1,0-1.52,5.66A3,3,0,0,0,224.79,164.52Z" transform="translate(-46.81 -56.16)"/><path class="cls-3" d="M135,77.29a2.78,2.78,0,0,0-3.12,4.07,2.78,2.78,0,0,0,3.79,1A2.78,2.78,0,0,0,135,77.29Z" transform="translate(-46.81 -56.16)"/><circle class="cls-3" cx="56.49" cy="77.53" r="2.78"/><circle class="cls-3" cx="118.48" cy="21.76" r="3.36"/><path class="cls-3" d="M171.89,97a2.46,2.46,0,1,0-.85,4.84,2.47,2.47,0,0,0,.43,0,2.46,2.46,0,0,0,2.41-2A2.46,2.46,0,0,0,171.89,97Z" transform="translate(-46.81 -56.16)"/><path class="cls-3" d="M201.72,100.74a2.33,2.33,0,0,0,1.29,4.1h0.21A2.33,2.33,0,1,0,201.72,100.74Z" transform="translate(-46.81 -56.16)"/><path class="cls-3" d="M197.42,78.13a3.81,3.81,0,1,0-1.91,7.11,3.86,3.86,0,0,0,1-.13A3.81,3.81,0,0,0,197.42,78.13Z" transform="translate(-46.81 -56.16)"/><path class="cls-3" d="M239.25,106.78a3.81,3.81,0,1,0-2.28,4.88A3.79,3.79,0,0,0,239.25,106.78Z" transform="translate(-46.81 -56.16)"/><path class="cls-3" d="M107.57,96.84a3,3,0,0,0-4.15,1.11A3,3,0,1,0,107.57,96.84Z" transform="translate(-46.81 -56.16)"/><path class="cls-4" d="M198.75,186a2.78,2.78,0,1,0-3.12,4.07,2.76,2.76,0,0,0,2.11-.28A2.78,2.78,0,0,0,198.75,186Z" transform="translate(-46.81 -56.16)"/><path class="cls-4" d="M128.73,100.13a2.78,2.78,0,0,0,.24,5.54h0.25a2.78,2.78,0,0,0,1.54-4.89A2.73,2.73,0,0,0,128.73,100.13Z" transform="translate(-46.81 -56.16)"/><path class="cls-4" d="M193.73,108.16a1.79,1.79,0,0,0-1.32.42,1.81,1.81,0,0,0,1,3.2h0.16A1.81,1.81,0,0,0,193.73,108.16Z" transform="translate(-46.81 -56.16)"/><path class="cls-4" d="M200.58,144.5a1.81,1.81,0,1,0,1,.94A1.8,1.8,0,0,0,200.58,144.5Z" transform="translate(-46.81 -56.16)"/><path class="cls-4" d="M206.64,124.07a2.33,2.33,0,1,0,2.7,1.89A2.33,2.33,0,0,0,206.64,124.07Z" transform="translate(-46.81 -56.16)"/><path class="cls-4" d="M152.56,90.74a3.81,3.81,0,0,0-5.19,4.75A3.82,3.82,0,0,0,151,98,3.81,3.81,0,0,0,152.56,90.74Z" transform="translate(-46.81 -56.16)"/><path class="cls-4" d="M154,69.75a2.33,2.33,0,1,0,2.7,1.89A2.33,2.33,0,0,0,154,69.75Z" transform="translate(-46.81 -56.16)"/><circle class="cls-4" cx="70.34" cy="77.69" r="2.33"/><path class="cls-5" d="M123.57,78.65a3.36,3.36,0,1,0-.41,4.73A3.34,3.34,0,0,0,123.57,78.65Z" transform="translate(-46.81 -56.16)"/><circle class="cls-5" cx="118.52" cy="46.09" r="2.33"/><path class="cls-5" d="M212.82,169.13h0a3.81,3.81,0,1,0,2.78.88,3.79,3.79,0,0,0-2.78-.88Z" transform="translate(-46.81 -56.16)"/><path class="cls-5" d="M234.48,119.32a3,3,0,1,0-1.74,5.52,3,3,0,0,0,2.49-1.29A3,3,0,0,0,234.48,119.32Z" transform="translate(-46.81 -56.16)"/><path class="cls-5" d="M204.36,69.57A2.45,2.45,0,1,0,202,72.66a2.47,2.47,0,0,0,.64-0.08A2.45,2.45,0,0,0,204.36,69.57Z" transform="translate(-46.81 -56.16)"/><path class="cls-6" d="M179.68,206a2.33,2.33,0,1,0-1.34,4.24A2.33,2.33,0,0,0,179.68,206Z" transform="translate(-46.81 -56.16)"/><path class="cls-6" d="M120.88,115a2.33,2.33,0,1,0,1.39,3A2.33,2.33,0,0,0,120.88,115Z" transform="translate(-46.81 -56.16)"/><path class="cls-6" d="M95.46,105.56a2.33,2.33,0,1,0,1.39,3A2.33,2.33,0,0,0,95.46,105.56Z" transform="translate(-46.81 -56.16)"/><path class="cls-6" d="M187.26,156.15h0a2.33,2.33,0,1,0-.29,3.28,2.33,2.33,0,0,0,.29-3.28Z" transform="translate(-46.81 -56.16)"/><path class="cls-6" d="M185,78.45a3.36,3.36,0,1,0,2,4.31A3.36,3.36,0,0,0,185,78.45Z" transform="translate(-46.81 -56.16)"/><path class="cls-7" d="M131.27,119a1.81,1.81,0,1,0,1,.94A1.82,1.82,0,0,0,131.27,119Z" transform="translate(-46.81 -56.16)"/><path class="cls-7" d="M132,94a3.36,3.36,0,1,0-2.16.78A3.36,3.36,0,0,0,132,94Z" transform="translate(-46.81 -56.16)"/><circle class="cls-7" cx="118.52" cy="35.15" r="2.33"/><path class="cls-7" d="M203,162.86a2.33,2.33,0,1,0,1.7.54A2.31,2.31,0,0,0,203,162.86Z" transform="translate(-46.81 -56.16)"/><path class="cls-7" d="M184.2,162.71a2.46,2.46,0,1,0,1.49,1.14A2.44,2.44,0,0,0,184.2,162.71Z" transform="translate(-46.81 -56.16)"/><circle class="cls-7" cx="191.84" cy="77.54" r="2.46"/><path class="cls-7" d="M191.28,116.87a2.26,2.26,0,1,0,1.37,1.05A2.25,2.25,0,0,0,191.28,116.87Z" transform="translate(-46.81 -56.16)"/><path class="cls-7" d="M223,81.78a3.81,3.81,0,1,0,2.59,1.35A3.79,3.79,0,0,0,223,81.78Z" transform="translate(-46.81 -56.16)"/><path class="cls-8" d="M180.59,91.67a2.33,2.33,0,1,0,1.39,3A2.31,2.31,0,0,0,180.59,91.67Z" transform="translate(-46.81 -56.16)"/><path class="cls-8" d="M107.31,110.06a2.33,2.33,0,0,0-1.59,4.38h0A2.33,2.33,0,0,0,107.31,110.06Z" transform="translate(-46.81 -56.16)"/><path class="cls-8" d="M178.84,73.08a2.77,2.77,0,1,0-2.73,2.3A2.76,2.76,0,0,0,178.84,73.08Z" transform="translate(-46.81 -56.16)"/><path class="cls-8" d="M128.6,65.06a3.81,3.81,0,0,0-2,7.36A3.81,3.81,0,1,0,128.6,65.06Z" transform="translate(-46.81 -56.16)"/><circle class="cls-8" cx="43.66" cy="77.53" r="3.81"/><path class="cls-8" d="M209.94,183.12a3.36,3.36,0,0,0-.59,6.69h0.3A3.36,3.36,0,0,0,209.94,183.12Z" transform="translate(-46.81 -56.16)"/><path class="cls-8" d="M210.48,141.65a3.81,3.81,0,1,0-3.75,3.15A3.78,3.78,0,0,0,210.48,141.65Z" transform="translate(-46.81 -56.16)"/><path class="cls-8" d="M213.92,116.45a2.78,2.78,0,1,0-5.22,1.9,2.79,2.79,0,0,0,2.61,1.83A2.78,2.78,0,0,0,213.92,116.45Z" transform="translate(-46.81 -56.16)"/><path class="cls-8" d="M191.73,173a2.78,2.78,0,0,0-5.09.67,2.75,2.75,0,0,0,.28,2.11,2.78,2.78,0,0,0,3.79,1A2.78,2.78,0,0,0,191.73,173Z" transform="translate(-46.81 -56.16)"/><path class="cls-9" d="M187.5,183.71a3,3,0,1,0-.1,2.32A3,3,0,0,0,187.5,183.71Z" transform="translate(-46.81 -56.16)"/><path class="cls-9" d="M100,119.1a3,3,0,1,0,2,1.25A3,3,0,0,0,100,119.1Z" transform="translate(-46.81 -56.16)"/><path class="cls-9" d="M143.53,90.48a2.33,2.33,0,1,0-2.62,3.41,2.34,2.34,0,0,0,.61.08A2.33,2.33,0,0,0,143.53,90.48Z" transform="translate(-46.81 -56.16)"/><path class="cls-9" d="M151.73,56.72a2.74,2.74,0,0,0-2.22,3.18h0a2.74,2.74,0,0,0,2.69,2.27,2.79,2.79,0,0,0,.48,0A2.74,2.74,0,1,0,151.73,56.72Z" transform="translate(-46.81 -56.16)"/><path class="cls-9" d="M143.67,107.84a2.33,2.33,0,0,0,1.29,4.1h0.21A2.33,2.33,0,1,0,143.67,107.84Z" transform="translate(-46.81 -56.16)"/><path class="cls-9" d="M191.16,90.18a3.81,3.81,0,1,0-1.91,7.11,3.83,3.83,0,0,0,1-.13A3.81,3.81,0,0,0,191.16,90.18Z" transform="translate(-46.81 -56.16)"/><path class="cls-9" d="M198.48,123.48h0a2.46,2.46,0,1,0-1.27-1.39,2.45,2.45,0,0,0,1.27,1.39Z" transform="translate(-46.81 -56.16)"/><circle class="cls-9" cx="165.79" cy="77.75" r="3.81"/><path class="cls-9" d="M201.91,151.32a3,3,0,1,0-1.52,5.66,3.07,3.07,0,0,0,.79-0.1A3,3,0,0,0,201.91,151.32Z" transform="translate(-46.81 -56.16)"/><path class="cls-9" d="M224.66,179.37a2.44,2.44,0,0,0-1.79-.57h0a2.46,2.46,0,0,0,.21,4.9h0.22A2.45,2.45,0,0,0,224.66,179.37Z" transform="translate(-46.81 -56.16)"/><path class="cls-9" d="M187.76,72a3.36,3.36,0,1,0-1.9-1.74A3.36,3.36,0,0,0,187.76,72Z" transform="translate(-46.81 -56.16)"/><path class="cls-10" d="M172.86,165.86a2.46,2.46,0,1,0-1,4.43A2.46,2.46,0,0,0,172.86,165.86Z" transform="translate(-46.81 -56.16)"/><circle class="cls-10" cx="81.79" cy="77.46" r="1.81"/><path class="cls-10" d="M139.34,115.94a2.33,2.33,0,1,0,.85,3.18A2.31,2.31,0,0,0,139.34,115.94Z" transform="translate(-46.81 -56.16)"/><path class="cls-10" d="M212.09,104.22a3,3,0,0,0-3.41,4.45,3,3,0,0,0,5.26-3A3,3,0,0,0,212.09,104.22Z" transform="translate(-46.81 -56.16)"/><path class="cls-10" d="M184,101.46a2.46,2.46,0,1,0,.9,3.36h0A2.46,2.46,0,0,0,184,101.46Z" transform="translate(-46.81 -56.16)"/><path class="cls-10" d="M212.48,148.33a2.33,2.33,0,1,0,1.31,1.2A2.32,2.32,0,0,0,212.48,148.33Z" transform="translate(-46.81 -56.16)"/><path class="cls-10" d="M235.22,143.83a3,3,0,1,0,.5,2.27A3,3,0,0,0,235.22,143.83Z" transform="translate(-46.81 -56.16)"/><path class="cls-10" d="M195.46,126.11a2.26,2.26,0,0,0,.39,4.49,2.18,2.18,0,0,0,.39,0A2.26,2.26,0,1,0,195.46,126.11Z" transform="translate(-46.81 -56.16)"/><path class="cls-10" d="M200.19,88.81a3,3,0,0,0,.26,6.06h0.27A3,3,0,0,0,200.19,88.81Z" transform="translate(-46.81 -56.16)"/><path class="cls-10" d="M141.08,66.52A3,3,0,1,0,145,68.33,3,3,0,0,0,141.08,66.52Z" transform="translate(-46.81 -56.16)"/><path class="cls-10" d="M119.09,103.91a2.92,2.92,0,1,0-1.46,5.44,2.93,2.93,0,0,0,.76-0.1A2.92,2.92,0,0,0,119.09,103.91Z" transform="translate(-46.81 -56.16)"/><path class="cls-11" d="M110.43,82.45a3.81,3.81,0,0,0-5.36.47A3.81,3.81,0,1,0,110.43,82.45Z" transform="translate(-46.81 -56.16)"/><path class="cls-11" d="M206.06,196.62a3.81,3.81,0,1,0,.38,2.89A3.78,3.78,0,0,0,206.06,196.62Z" transform="translate(-46.81 -56.16)"/><path class="cls-11" d="M183.28,171.57a3.81,3.81,0,1,0-.13,2.91A3.78,3.78,0,0,0,183.28,171.57Z" transform="translate(-46.81 -56.16)"/><path class="cls-11" d="M138.32,98.89a2.33,2.33,0,0,0-2,3.82h0A2.33,2.33,0,1,0,138.32,98.89Z" transform="translate(-46.81 -56.16)"/><path class="cls-11" d="M224.57,115.08a2.78,2.78,0,0,0,.22-5.13,2.78,2.78,0,0,0-3.78,3.47A2.78,2.78,0,0,0,224.57,115.08Z" transform="translate(-46.81 -56.16)"/><path class="cls-11" d="M174.69,84.19a3.81,3.81,0,1,0-.65,7.56A3.81,3.81,0,0,0,174.69,84.19Z" transform="translate(-46.81 -56.16)"/><path class="cls-11" d="M184,109a2.26,2.26,0,1,0,1.65.52A2.25,2.25,0,0,0,184,109Z" transform="translate(-46.81 -56.16)"/><path class="cls-11" d="M224.87,152.85a2.33,2.33,0,1,0,1.39,3A2.31,2.31,0,0,0,224.87,152.85Z" transform="translate(-46.81 -56.16)"/><circle class="cls-11" cx="178.88" cy="77.54" r="3.81"/><path class="cls-11" d="M193,154.54a2.46,2.46,0,0,0,.21,4.9h0.22a2.46,2.46,0,0,0,1.36-4.33A2.47,2.47,0,0,0,193,154.54Z" transform="translate(-46.81 -56.16)"/><path class="cls-11" d="M181.45,57.78a3.81,3.81,0,1,0-3.78,5.93,3.82,3.82,0,0,0,.67.06A3.81,3.81,0,0,0,181.45,57.78Z" transform="translate(-46.81 -56.16)"/><path class="cls-12" d="M113.57,121.49a3,3,0,0,0-1.06,6,3.06,3.06,0,0,0,.53,0A3,3,0,0,0,113.57,121.49Z" transform="translate(-46.81 -56.16)"/><circle class="cls-12" cx="118.28" cy="8.88" r="3.04"/><path class="cls-12" d="M193.31,100.36a3,3,0,1,0-2,5.36h0.27A3,3,0,0,0,193.31,100.36Z" transform="translate(-46.81 -56.16)"/><path class="cls-12" d="M146.08,100.18a1.82,1.82,0,0,0-.66,2.48h0A1.81,1.81,0,1,0,146.08,100.18Z" transform="translate(-46.81 -56.16)"/><path class="cls-12" d="M177.94,179.21a3.81,3.81,0,1,0-.63,2.85A3.78,3.78,0,0,0,177.94,179.21Z" transform="translate(-46.81 -56.16)"/><path class="cls-12" d="M221.62,141.44a3,3,0,1,0,.5,2.27A3,3,0,0,0,221.62,141.44Z" transform="translate(-46.81 -56.16)"/><path class="cls-13" d="M203.35,173.72a3.32,3.32,0,0,0-1.31-.94h0l1.21-5.28h0a2.32,2.32,0,0,1-1-.25L201,172.54a3.35,3.35,0,1,0,2,5.92,3.35,3.35,0,0,1-.45.31l4.62,5.51a3.33,3.33,0,0,1,.38-0.39,3.37,3.37,0,0,1,.45-0.31l-4.63-5.51A3.36,3.36,0,0,0,203.35,173.72Zm-1.82-1.1h0Z" transform="translate(-46.81 -56.16)"/><path class="cls-13" d="M177.92,163.62a2.29,2.29,0,0,0,.14-0.4,2.21,2.21,0,0,1-.14.4,2.27,2.27,0,0,1-.13.22l3.32,1a2.48,2.48,0,0,1,.07-0.44,2.45,2.45,0,0,1,.26-0.6l-3.32-1A2.27,2.27,0,1,0,174,164l-1.46,1.73a2,2,0,0,1,.83.7l1.46-1.72h0l0,0A2.26,2.26,0,0,0,177.92,163.62Zm-3.53.74,0,0Z" transform="translate(-46.81 -56.16)"/><path class="cls-13" d="M220.64,101.77a3,3,0,1,0,5.26-3,3,3,0,0,0-1.84-1.42,3.06,3.06,0,0,0-.36-0.06l-0.32-7.95a2.68,2.68,0,0,1-1.09,0l0.32,8a2.77,2.77,0,0,0-1.58.93l-5.58-3.45a2.74,2.74,0,0,1-.57.92l5.58,3.45A3,3,0,0,0,220.64,101.77Zm2.51-4.54h0Zm-2.45,1.43h0Z" transform="translate(-46.81 -56.16)"/><path class="cls-13" d="M136.88,126.39h0a2.27,2.27,0,0,0-2.62,1.84,2.24,2.24,0,0,0,.09,1.1l-4.59,2.91a1.81,1.81,0,0,1,.58.92l4.58-2.9a2.24,2.24,0,0,0,1.17.59A2.26,2.26,0,1,0,136.88,126.39Zm-2.42,3.22a2.28,2.28,0,0,0,.17.31A2,2,0,0,1,134.46,129.61Z" transform="translate(-46.81 -56.16)"/><path class="cls-13" d="M115.68,92a2.78,2.78,0,0,0,4.25,3.57,2.75,2.75,0,0,0,.64-1.79l6.17-1.24a3.31,3.31,0,0,1-.21-1.06l-6.17,1.24h0a2.74,2.74,0,0,0-.76-1.06A2.78,2.78,0,0,0,115.68,92Zm4.84,1.24h0Z" transform="translate(-46.81 -56.16)"/><path class="cls-13" d="M128.15,110.07a2.34,2.34,0,1,0,2.92,2.41h0l4.38-1a2.45,2.45,0,0,1-.26-0.91s0-.09,0-0.14l-4.3,1a2.34,2.34,0,0,1,.12.31,2.1,2.1,0,0,1,.06.39,2.34,2.34,0,0,0-.06-0.39,2.27,2.27,0,0,0-1.72-1.65l0.14-4.43-0.21,0H129a2.74,2.74,0,0,1-.63-0.08l-0.14,4.46h0Zm0.62-.07h0Z" transform="translate(-46.81 -56.16)"/><path class="cls-13" d="M177.11,70l1.1-6.25a3.82,3.82,0,0,1-.54,0,3.76,3.76,0,0,1-.52-0.15L176,69.82A2.83,2.83,0,0,1,177.11,70Z" transform="translate(-46.81 -56.16)"/><path class="cls-13" d="M202.4,89.51a3,3,0,0,1,.38.39l5-6h0a3,3,0,0,0,1.5.4h0.27a3,3,0,1,0-2.6-1.09l-5,6A3,3,0,0,1,202.4,89.51Z" transform="translate(-46.81 -56.16)"/><path class="cls-13" d="M197.86,78.45l3.41-5.91a2.22,2.22,0,0,1-.94-0.54l-3.41,5.9A2.81,2.81,0,0,1,197.86,78.45Z" transform="translate(-46.81 -56.16)"/><path class="cls-13" d="M199.66,88.91l-2.05-4.32a3.79,3.79,0,0,1-1,.47l2.05,4.32A3,3,0,0,1,199.66,88.91Z" transform="translate(-46.81 -56.16)"/><path class="cls-13" d="M191.47,90.4L194.26,85a3.82,3.82,0,0,1-.65-0.29c-0.11-.06-0.2-0.15-0.3-0.22l-2.79,5.38a3.84,3.84,0,0,1,.65.3C191.27,90.25,191.37,90.33,191.47,90.4Z" transform="translate(-46.81 -56.16)"/><path class="cls-13" d="M212.54,184.76a3.31,3.31,0,0,1,.39,1l8.13-3.16a2.42,2.42,0,0,1-.39-1Z" transform="translate(-46.81 -56.16)"/><path class="cls-13" d="M234.55,124.23a3,3,0,0,1-1,.48l3.53,7.1a2.43,2.43,0,0,1,1-.49Z" transform="translate(-46.81 -56.16)"/><path class="cls-13" d="M205.42,164.46l3.61-2.22a3,3,0,0,1-.55-0.93l-3.63,2.23A2.31,2.31,0,0,1,205.42,164.46Z" transform="translate(-46.81 -56.16)"/><path class="cls-13" d="M205,166.68a2.32,2.32,0,0,1-.34.32l5.19,4a3.79,3.79,0,0,1,.38-0.56,3.83,3.83,0,0,1,.29-0.29l-5.2-4.05A2.3,2.3,0,0,1,205,166.68Z" transform="translate(-46.81 -56.16)"/><path class="cls-13" d="M190.77,157.2a2.48,2.48,0,0,1,0-.55l-3.11.27a2.33,2.33,0,0,1,.09,1.08l3.12-.27A2.46,2.46,0,0,1,190.77,157.2Z" transform="translate(-46.81 -56.16)"/><path class="cls-13" d="M193,154.53h0.06l-1.24-4.24a2,2,0,0,1-1,.3l1.24,4.24A2.44,2.44,0,0,1,193,154.53Z" transform="translate(-46.81 -56.16)"/><path class="cls-13" d="M232.92,148.6l2.14,8.76,0.08,0a2.32,2.32,0,0,1,1-.21L234,148.34A3,3,0,0,1,232.92,148.6Z" transform="translate(-46.81 -56.16)"/><path class="cls-13" d="M223.38,157.26l-0.46,6.9a3,3,0,0,1,1.08.07l0.47-6.91a2.29,2.29,0,0,1-.39.06A2.32,2.32,0,0,1,223.38,157.26Z" transform="translate(-46.81 -56.16)"/><path class="cls-13" d="M233.9,160.1l-8.47,5a3,3,0,0,1,.61.9l8.41-4.92A2,2,0,0,1,233.9,160.1Z" transform="translate(-46.81 -56.16)"/><path class="cls-13" d="M208.78,137.78a3.77,3.77,0,0,1,.81.72l1.13-1.31a3.81,3.81,0,0,1-.86-0.66Z" transform="translate(-46.81 -56.16)"/><path class="cls-13" d="M203,140.33a3.82,3.82,0,0,1,.23-0.78l-5.27-.74h0a2.26,2.26,0,1,0-1.58,2.4h0l2.26,3.79a1.81,1.81,0,0,1,.59-0.44,1.83,1.83,0,0,1,.35-0.12l-2.26-3.79a2.23,2.23,0,0,0,.51-0.76h0l5.16,0.72C203,140.52,203,140.42,203,140.33Zm-5.06-.89a2.24,2.24,0,0,0,0-.35A1.94,1.94,0,0,1,197.92,139.44Z" transform="translate(-46.81 -56.16)"/><path class="cls-13" d="M229.75,145a3,3,0,0,1,.19-0.63l-7.77-1.29a2.93,2.93,0,0,1-.18,1.07l7.72,1.28A3,3,0,0,1,229.75,145Z" transform="translate(-46.81 -56.16)"/><path class="cls-13" d="M214.17,137.36l2.76,3.74a2.72,2.72,0,0,1,.88-0.64l-2.72-3.69A3.8,3.8,0,0,1,214.17,137.36Z" transform="translate(-46.81 -56.16)"/><path class="cls-13" d="M199.46,147.93l0.07,3.12,0.08,0a3,3,0,0,1,1-.08l-0.07-3a1.79,1.79,0,0,1-.58.11A1.81,1.81,0,0,1,199.46,147.93Z" transform="translate(-46.81 -56.16)"/><path class="cls-13" d="M211.38,152.82L211,157.24a3,3,0,0,1,1.08.07l0.43-4.63a2.31,2.31,0,0,1-.8.16Z" transform="translate(-46.81 -56.16)"/><path class="cls-13" d="M209.57,151.5a2.33,2.33,0,0,1-.17-0.53l-6.06,2.29a3,3,0,0,1,0,1.14l6.47-2.44A2.34,2.34,0,0,1,209.57,151.5Z" transform="translate(-46.81 -56.16)"/><path class="cls-13" d="M217.71,126.81a3.38,3.38,0,0,1-.39-0.33l-2.84,4.14a3.81,3.81,0,0,1,.86.66l2.87-4.18A3.38,3.38,0,0,1,217.71,126.81Z" transform="translate(-46.81 -56.16)"/><path class="cls-13" d="M221.1,111.3a2.8,2.8,0,0,1,.24-0.4l-7.09-3.06a3,3,0,0,1-.43,1l7.09,3.06A2.79,2.79,0,0,1,221.1,111.3Z" transform="translate(-46.81 -56.16)"/><path class="cls-13" d="M211.83,110.12a2.08,2.08,0,0,1-1.09,0l0,4.59a2.74,2.74,0,0,1,1.08,0Z" transform="translate(-46.81 -56.16)"/><path class="cls-13" d="M226.23,111.52a2.77,2.77,0,0,1,.13.53l6-2.17a2.8,2.8,0,0,1-.37-1L226,111A2.8,2.8,0,0,1,226.23,111.52Z" transform="translate(-46.81 -56.16)"/><path class="cls-13" d="M228.06,130.74l3.62-6.09a3,3,0,0,1-.93-0.56l-3.62,6.09A3.79,3.79,0,0,1,228.06,130.74Z" transform="translate(-46.81 -56.16)"/><path class="cls-13" d="M220.94,127.15l2.3,3.66a3.8,3.8,0,0,1,.91-0.59l-2.3-3.66A3.33,3.33,0,0,1,220.94,127.15Z" transform="translate(-46.81 -56.16)"/><path class="cls-13" d="M208.68,108.67a3,3,0,0,1-.23-0.5l-5.75,3.32a3,3,0,0,0-1-.79l1.51-5.86H203a2.32,2.32,0,0,1-.89-0.26l-1.51,5.85a3.07,3.07,0,0,1,.57.09,3,3,0,0,0-3.41,4.45,3,3,0,0,0,4.15,1.11,3,3,0,0,0,1.34-3.65l5.77-3.33A3,3,0,0,1,208.68,108.67Z" transform="translate(-46.81 -56.16)"/><path class="cls-13" d="M209.37,126.42l7.1-1.25a2.81,2.81,0,0,1-.19-1.07l-7.15,1.26a2.29,2.29,0,0,1,.21.6A2.33,2.33,0,0,1,209.37,126.42Z" transform="translate(-46.81 -56.16)"/><path class="cls-13" d="M145.68,85.22a3,3,0,0,1-.95-0.53l-2.6,4.71a2.31,2.31,0,0,1,.95.53Z" transform="translate(-46.81 -56.16)"/><path class="cls-13" d="M143.55,92.75l3.64,1a3.78,3.78,0,0,1,.28-1l-3.63-1A2.34,2.34,0,0,1,143.55,92.75Z" transform="translate(-46.81 -56.16)"/><path class="cls-13" d="M145.6,79.5a3,3,0,0,1,.53-0.14l-2.65-7.29a2.33,2.33,0,0,1-1,.31l2.68,7.35A3,3,0,0,1,145.6,79.5Z" transform="translate(-46.81 -56.16)"/><path class="cls-13" d="M137.08,99.13l-4.67-5.56a2.87,2.87,0,0,1-.83.7l4.67,5.56a2.31,2.31,0,0,1,.37-0.4A2.34,2.34,0,0,1,137.08,99.13Z" transform="translate(-46.81 -56.16)"/><path class="cls-13" d="M133.84,82.68a2.77,2.77,0,0,1-1-.39l-2.26,5.82a3.31,3.31,0,0,1,1,.39Z" transform="translate(-46.81 -56.16)"/><path class="cls-13" d="M123.15,83.38a3.35,3.35,0,0,1-.45.31l4.62,5.51a2.81,2.81,0,0,1,.83-0.7L123.53,83A3.33,3.33,0,0,1,123.15,83.38Z" transform="translate(-46.81 -56.16)"/><path class="cls-13" d="M145.24,102.19a1.81,1.81,0,0,1,.07-1.08l-4.91-.3a2.32,2.32,0,0,1,0,.61,2.35,2.35,0,0,1-.09.48Z" transform="translate(-46.81 -56.16)"/><path class="cls-13" d="M126.43,72.34a3.78,3.78,0,0,1-1-.48l-3.3,5.81a3.31,3.31,0,0,1,.95.52Z" transform="translate(-46.81 -56.16)"/><path class="cls-13" d="M118.07,82.45a3.31,3.31,0,0,1-.36-1l-6.3,2.31a3.78,3.78,0,0,1,.31,1Z" transform="translate(-46.81 -56.16)"/><path class="cls-13" d="M192.38,197.36a3,3,0,0,1-.06,1.08l6.66,0.38a3.79,3.79,0,0,1,.07-1.08Z" transform="translate(-46.81 -56.16)"/><path class="cls-13" d="M194.38,189.36l-3.79,5.6,0.06,0a3,3,0,0,1,.83.59l3.79-5.6A2.73,2.73,0,0,1,194.38,189.36Z" transform="translate(-46.81 -56.16)"/><path class="cls-13" d="M182.3,186.66l-5.15,6.45a2.33,2.33,0,0,1,.87.65l5.11-6.4A3,3,0,0,1,182.3,186.66Z" transform="translate(-46.81 -56.16)"/><path class="cls-13" d="M176.64,197.54a2.32,2.32,0,0,1-.41,0l-0.22,0,1.44,8.18a2.32,2.32,0,0,1,.49-0.14,2.34,2.34,0,0,1,.59,0l-1.44-8.15A2.35,2.35,0,0,1,176.64,197.54Z" transform="translate(-46.81 -56.16)"/><path class="cls-13" d="M198.21,132.19a2.46,2.46,0,0,1,.83-0.7l-1.45-1.73a2.25,2.25,0,0,1-.87.66Z" transform="translate(-46.81 -56.16)"/><path class="cls-13" d="M197.29,120.22l0-.07-4.38-1.09a2.07,2.07,0,0,1-.26,1.05l4.37,1.09A2.44,2.44,0,0,1,197.29,120.22Z" transform="translate(-46.81 -56.16)"/><path class="cls-13" d="M191.87,117.14l1.7-5.36h-0.15a1.8,1.8,0,0,1-.88-0.33l-1.7,5.35A2.14,2.14,0,0,1,191.87,117.14Z" transform="translate(-46.81 -56.16)"/><path class="cls-13" d="M205.06,127.58l-3.68,4a2.46,2.46,0,0,1,.8.73l3.65-3.94A2.33,2.33,0,0,1,205.06,127.58Z" transform="translate(-46.81 -56.16)"/><path class="cls-13" d="M198.48,123.48a2.45,2.45,0,0,1-.57-0.38l-1.63,3a2.26,2.26,0,0,1,.88.36l0.11,0.09,1.6-3a2.48,2.48,0,0,1-.38-0.13h0Z" transform="translate(-46.81 -56.16)"/><path class="cls-13" d="M192.32,117.49a2.07,2.07,0,0,1,.54.94l5.24-3a3,3,0,0,1-.33-0.43,3,3,0,0,1-.22-0.5Z" transform="translate(-46.81 -56.16)"/><path class="cls-13" d="M137.57,115.71a2.32,2.32,0,0,1,1,0l-0.21-3a2.47,2.47,0,0,1-.49.1h-0.22a2.41,2.41,0,0,1-.37,0l0.21,3Z" transform="translate(-46.81 -56.16)"/><path class="cls-13" d="M142.87,109.32l-2.89.3a2.29,2.29,0,0,1,.08,1.08l2.93-.31A2.32,2.32,0,0,1,142.87,109.32Z" transform="translate(-46.81 -56.16)"/><path class="cls-13" d="M122.27,118a2.27,2.27,0,0,1-.26.47l6.84,2.46a1.71,1.71,0,0,1,.24-1.07l-6.7-2.4A2.31,2.31,0,0,1,122.27,118Z" transform="translate(-46.81 -56.16)"/><path class="cls-13" d="M132.23,119.88l0.06,0.1a1.8,1.8,0,0,1,.15.95l3.85-1.6a2.33,2.33,0,0,1-.41-1Z" transform="translate(-46.81 -56.16)"/><path class="cls-13" d="M146.07,103.31l-0.92,4a2.33,2.33,0,0,1,1.06.23l0.92-4-0.14,0A1.82,1.82,0,0,1,146.07,103.31Z" transform="translate(-46.81 -56.16)"/><path class="cls-13" d="M124.46,128.46l2.72,4a1.81,1.81,0,0,1,.9-0.61l-2.73-4A2.34,2.34,0,0,1,124.46,128.46Z" transform="translate(-46.81 -56.16)"/><path class="cls-13" d="M104.33,111.46a2.33,2.33,0,0,1,.25-0.49l-7.64-2.78a2.11,2.11,0,0,1-.45,1l7.71,2.81A2.33,2.33,0,0,1,104.33,111.46Z" transform="translate(-46.81 -56.16)"/><path class="cls-13" d="M99.87,125.08l2.06,6.21a2.74,2.74,0,0,1,1-.34l-2.06-6.2A3,3,0,0,1,99.87,125.08Z" transform="translate(-46.81 -56.16)"/><path class="cls-13" d="M102.43,122.61a3.05,3.05,0,0,1-.14.53L110,124.5a2.8,2.8,0,0,1,.19-1.07l-7.73-1.36A3.06,3.06,0,0,1,102.43,122.61Z" transform="translate(-46.81 -56.16)"/><path class="cls-13" d="M117.63,109.35a2.87,2.87,0,0,1-.95-0.18l-3.37,12.3,0.26,0a3,3,0,0,1,.78.26l3.41-12.42Z" transform="translate(-46.81 -56.16)"/><path class="cls-13" d="M121.35,125.88a2.31,2.31,0,0,1,.16-0.51l-5.43-.92a2.81,2.81,0,0,1-.19,1.07l5.43,0.92A2.3,2.3,0,0,1,121.35,125.88Z" transform="translate(-46.81 -56.16)"/><path class="cls-13" d="M107,110l-0.28-7.56a3.05,3.05,0,0,1-.65.09,3,3,0,0,1-.43-0.06l0.28,7.57A2.29,2.29,0,0,1,107,110Z" transform="translate(-46.81 -56.16)"/><path class="cls-13" d="M100.57,133.18l-6.34.08a3.74,3.74,0,0,1,0,.43,3.78,3.78,0,0,1-.07.66l6.37-.08A2.63,2.63,0,0,1,100.57,133.18Z" transform="translate(-46.81 -56.16)"/><path class="cls-13" d="M115.1,105a2.9,2.9,0,0,1,.5-0.62l-6.7-3.87a2.82,2.82,0,0,1-.54.94l6.62,3.82A2.92,2.92,0,0,1,115.1,105Z" transform="translate(-46.81 -56.16)"/><path class="cls-13" d="M121.75,127.65l-3.56,4.14a2.33,2.33,0,0,1,.83.7l3.56-4.14A2.32,2.32,0,0,1,121.75,127.65Z" transform="translate(-46.81 -56.16)"/><path class="cls-13" d="M185.94,70.38l-0.08-.13a3.35,3.35,0,0,1-.26-0.9l-7,2a2.73,2.73,0,0,1,.3,1Z" transform="translate(-46.81 -56.16)"/><path class="cls-13" d="M173.36,91.68a3.79,3.79,0,0,1-.69-0.19L171.45,97a2.24,2.24,0,0,1,1.06.24l1.23-5.54C173.61,91.71,173.49,91.71,173.36,91.68Z" transform="translate(-46.81 -56.16)"/><path class="cls-13" d="M159.58,86.7a2.31,2.31,0,0,0,.13-1.26,2.33,2.33,0,0,0-2.24-1.92l-2-9.39a2.3,2.3,0,0,1-.6.2,2.32,2.32,0,0,1-.41,0h-0.05l2,9.39h0a2.32,2.32,0,0,0,1,4.42,2.34,2.34,0,0,0,.41,0,2.3,2.3,0,0,0,1.13-.55l4.18,2.93a2.32,2.32,0,0,1,.59-0.91l-4.15-2.91h0Z" transform="translate(-46.81 -56.16)"/><path class="cls-13" d="M158.62,99.14a1.79,1.79,0,0,1-.66-0.27,1.82,1.82,0,0,1-.29-0.26l-2.26,3.94a2.26,2.26,0,1,0-.62,4.43,2.25,2.25,0,0,0,1.56-3.89h0Zm-2.88,3.53a2,2,0,0,1,.33.19A2.28,2.28,0,0,0,155.74,102.67Z" transform="translate(-46.81 -56.16)"/><path class="cls-13" d="M177.49,75l3.83,4.36a3.34,3.34,0,0,1,.85-0.67l-3.87-4.41A2.77,2.77,0,0,1,177.49,75Z" transform="translate(-46.81 -56.16)"/><path class="cls-13" d="M173.46,73.42l-5.26,2.86a3.31,3.31,0,0,1,.38,1l5.4-2.94A2.78,2.78,0,0,1,173.46,73.42Z" transform="translate(-46.81 -56.16)"/><path class="cls-13" d="M164.78,93.57V100a2.13,2.13,0,0,1,1.09,0V93.57A2.13,2.13,0,0,1,164.78,93.57Z" transform="translate(-46.81 -56.16)"/><path class="cls-13" d="M157.6,96.24l-2.94-1.17a3.84,3.84,0,0,1-.25.72c0,0.1-.11.18-0.16,0.28l3,1.17A1.81,1.81,0,0,1,157.6,96.24Z" transform="translate(-46.81 -56.16)"/><path class="cls-13" d="M163.07,67.29a3,3,0,0,1-.67-0.86l-6.34,4a2.31,2.31,0,0,1,.57.92Z" transform="translate(-46.81 -56.16)"/><path class="cls-13" d="M154,69.75a2.33,2.33,0,0,1,.55,0L153.21,62a2.78,2.78,0,0,1-1,.19h-0.06l1.37,7.77A2.31,2.31,0,0,1,154,69.75Z" transform="translate(-46.81 -56.16)"/><path class="cls-13" d="M149.9,60.89l-6.14,5.94a3,3,0,0,1,.79.74l6.1-5.91h0A2.74,2.74,0,0,1,149.9,60.89Z" transform="translate(-46.81 -56.16)"/><path class="cls-13" d="M162,77.17a3.33,3.33,0,0,1,.42-1l-5.78-3.43a2.33,2.33,0,0,1-.55.94Z" transform="translate(-46.81 -56.16)"/><path class="cls-13" d="M180.86,83.18L177,85.53c0.06,0.07.13,0.14,0.19,0.22a3.84,3.84,0,0,1,.39.7l4-2.41A3.34,3.34,0,0,1,180.86,83.18Z" transform="translate(-46.81 -56.16)"/><path class="cls-13" d="M182.68,106l0.56,3.18a2,2,0,0,1,1.07-.19l-0.56-3.19a2.44,2.44,0,0,1-1,.21Z" transform="translate(-46.81 -56.16)"/><path class="cls-13" d="M185.11,102.8a2.46,2.46,0,0,1,.12,1.08l3.21-.34a2.78,2.78,0,0,1-.11-1.08Z" transform="translate(-46.81 -56.16)"/><path class="cls-13" d="M180.47,104.34a2.46,2.46,0,0,1-.1-1.08l-2.12.18a2.31,2.31,0,0,1,.11,1.08Z" transform="translate(-46.81 -56.16)"/><path class="cls-13" d="M178.51,95.8l-2.21,6.07a2.13,2.13,0,0,1,1,.37l2.21-6.07A2.1,2.1,0,0,1,178.51,95.8Z" transform="translate(-46.81 -56.16)"/><path class="cls-13" d="M185.48,93.09l-3.45.14a2.31,2.31,0,0,1,0,1.08l3.46-.14A3.79,3.79,0,0,1,185.48,93.09Z" transform="translate(-46.81 -56.16)"/><path class="cls-13" d="M210.26,92.85l-6.79-1.08a3,3,0,0,1-.17,1.07l6.78,1.08A2.78,2.78,0,0,1,210.26,92.85Z" transform="translate(-46.81 -56.16)"/><path class="cls-13" d="M211.11,104.14a3,3,0,0,1,1,.09l0.1,0,0.89-7.69-0.23,0a2.77,2.77,0,0,1-.85-0.15Z" transform="translate(-46.81 -56.16)"/><path class="cls-13" d="M183.7,162.63a2.31,2.31,0,0,1,1,.31l0.72-3a2.33,2.33,0,0,1-1.05-.26Z" transform="translate(-46.81 -56.16)"/><path class="cls-13" d="M181,176.45a3.87,3.87,0,0,1-.48.13l2.37,5.71a3,3,0,0,1,.71-0.38l0.28-.07-2.35-5.63A3.83,3.83,0,0,1,181,176.45Z" transform="translate(-46.81 -56.16)"/><path class="cls-13" d="M176.18,176.64l0.2,0.11a3.82,3.82,0,0,1,.64.58l0.91-1.11a3.79,3.79,0,0,1-.88-0.64Z" transform="translate(-46.81 -56.16)"/><path class="cls-13" d="M185.47,181.84a2.78,2.78,0,0,1,1,.47l2.28-5.18a2.76,2.76,0,0,1-1-.44Z" transform="translate(-46.81 -56.16)"/><path class="cls-13" d="M195,185a2.78,2.78,0,0,1,.57-0.24l-4.44-8.2a2.4,2.4,0,0,1-1,.51l4.44,8.2A2.75,2.75,0,0,1,195,185Z" transform="translate(-46.81 -56.16)"/><path class="cls-13" d="M192.23,168.36a2.3,2.3,0,0,1-1-.39l-1.43,3.74a2.78,2.78,0,0,1,1,.39Z" transform="translate(-46.81 -56.16)"/><path class="cls-13" d="M186,165.1a2.47,2.47,0,0,1-.25,1.07l4.48,0.28a2.32,2.32,0,0,1,0-.6,2.35,2.35,0,0,1,.1-0.48Z" transform="translate(-46.81 -56.16)"/><polygon class="cls-13" points="163.59 37.2 163.59 37.2 163.59 37.2 163.59 37.2"/><polygon class="cls-13" points="138.16 47.21 138.16 47.21 138.16 47.21 138.16 47.21"/></svg>